JetBrainsMoro-ExtraBold.ufo
<glyph name="ampersand" format="2">
  <advance width="600"/>
  <unicode hex="0026"/>
  <outline>
    <contour>
      <point x="235" y="-10" type="curve" smooth="yes"/>
      <point x="301" y="-10"/>
      <point x="357" y="11"/>
      <point x="401" y="51" type="curve"/>
      <point x="437" y="0" type="line"/>
      <point x="580" y="0" type="line"/>
      <point x="472" y="155" type="line"/>
      <point x="574" y="360" type="line"/>
      <point x="434" y="360" type="line"/>
      <point x="391" y="271" type="line"/>
      <point x="276" y="436" type="line" smooth="yes"/>
      <point x="245" y="480"/>
      <point x="225" y="518"/>
      <point x="225" y="550" type="curve" smooth="yes"/>
      <point x="225" y="592"/>
      <point x="253" y="620"/>
      <point x="295" y="620" type="curve" smooth="yes"/>
      <point x="337" y="620"/>
      <point x="365" y="592"/>
      <point x="365" y="550" type="curve"/>
      <point x="500" y="550" type="line"/>
      <point x="500" y="664"/>
      <point x="418" y="740"/>
      <point x="295" y="740" type="curve" smooth="yes"/>
      <point x="175" y="740"/>
      <point x="95" y="668"/>
      <point x="95" y="565" type="curve" smooth="yes"/>
      <point x="95" y="507"/>
      <point x="120" y="449"/>
      <point x="162" y="390" type="curve"/>
      <point x="179" y="443" type="line"/>
      <point x="87" y="434"/>
      <point x="34" y="367"/>
      <point x="34" y="265" type="curve" smooth="yes"/>
      <point x="34" y="195" type="line" smooth="yes"/>
      <point x="34" y="66"/>
      <point x="107" y="-10"/>
    </contour>
    <contour>
      <point x="249" y="110" type="curve" smooth="yes"/>
      <point x="204" y="110"/>
      <point x="174" y="140"/>
      <point x="174" y="195" type="curve" smooth="yes"/>
      <point x="174" y="265" type="line" smooth="yes"/>
      <point x="174" y="298"/>
      <point x="183" y="321"/>
      <point x="200" y="335" type="curve"/>
      <point x="330" y="151" type="line"/>
      <point x="310" y="125"/>
      <point x="282" y="110"/>
    </contour>
  </outline>
</glyph>
<glyph name="J" format="2">
  <advance width="600"/>
  <unicode hex="004A"/>
  <anchor x="300" y="0" name="bottom"/>
  <anchor x="360" y="730" name="top"/>
  <outline>
    <contour>
      <point x="270" y="-10" type="curve" smooth="yes"/>
      <point x="424" y="-10"/>
      <point x="520" y="78"/>
      <point x="520" y="219" type="curve" smooth="yes"/>
      <point x="520" y="730" type="line"/>
      <point x="165" y="730" type="line"/>
      <point x="165" y="595" type="line"/>
      <point x="370" y="595" type="line"/>
      <point x="370" y="219" type="line" smooth="yes"/>
      <point x="370" y="158"/>
      <point x="331" y="120"/>
      <point x="270" y="120" type="curve" smooth="yes"/>
      <point x="208" y="120"/>
      <point x="170" y="159"/>
      <point x="170" y="221" type="curve"/>
      <point x="20" y="221" type="line"/>
      <point x="20" y="79"/>
      <point x="116" y="-10"/>
    </contour>
  </outline>
</glyph>
<glyph name="L" format="2">
  <advance width="600"/>
  <unicode hex="004C"/>
  <anchor x="340" y="0" name="bottom"/>
  <anchor x="300" y="365" name="center"/>
  <anchor x="190" y="730" name="top"/>
  <anchor x="580" y="730" name="topright"/>
  <outline>
    <contour>
      <point x="115" y="0" type="line"/>
      <point x="560" y="0" type="line"/>
      <point x="560" y="135" type="line"/>
      <point x="265" y="135" type="line"/>
      <point x="265" y="730" type="line"/>
      <point x="115" y="730" type="line"/>
    </contour>
  </outline>
</glyph>
<glyph name="V" format="2">
  <advance width="600"/>
  <unicode hex="0056"/>
  <anchor x="300" y="0" name="bottom"/>
  <anchor x="300" y="730" name="top"/>
  <outline>
    <contour>
      <point x="206" y="0" type="line"/>
      <point x="396" y="0" type="line"/>
      <point x="575" y="730" type="line"/>
      <point x="424" y="730" type="line"/>
      <point x="326" y="270" type="line" smooth="yes"/>
      <point x="319" y="237"/>
      <point x="310" y="179"/>
      <point x="305" y="145" type="curve"/>
      <point x="299" y="179"/>
      <point x="288" y="237"/>
      <point x="281" y="269" type="curve" smooth="yes"/>
      <point x="180" y="730" type="line"/>
      <point x="25" y="730" type="line"/>
    </contour>
  </outline>
</glyph>
<glyph name="v" format="2">
  <advance width="600"/>
  <unicode hex="0076"/>
  <anchor x="300" y="0" name="bottom"/>
  <anchor x="300" y="550" name="top"/>
  <outline>
    <contour>
      <point x="207" y="0" type="line"/>
      <point x="395" y="0" type="line"/>
      <point x="580" y="550" type="line"/>
      <point x="427" y="550" type="line"/>
      <point x="329" y="240" type="line" smooth="yes"/>
      <point x="318" y="204"/>
      <point x="308" y="154"/>
      <point x="302" y="127" type="curve"/>
      <point x="296" y="154"/>
      <point x="287" y="204"/>
      <point x="275" y="241" type="curve" smooth="yes"/>
      <point x="175" y="550" type="line"/>
      <point x="20" y="550" type="line"/>
    </contour>
  </outline>
</glyph>
<glyph name="z" format="2">
  <advance width="600"/>
  <unicode hex="007A"/>
  <anchor x="300" y="0" name="bottom"/>
  <anchor x="300" y="275" name="center"/>
  <anchor x="300" y="550" name="top"/>
  <outline>
    <contour>
      <point x="70" y="0" type="line"/>
      <point x="530" y="0" type="line"/>
      <point x="530" y="130" type="line"/>
      <point x="247" y="130" type="line"/>
      <point x="519" y="420" type="line"/>
      <point x="519" y="550" type="line"/>
      <point x="80" y="550" type="line"/>
      <point x="80" y="420" type="line"/>
      <point x="342" y="420" type="line"/>
      <point x="70" y="130" type="line"/>
    </contour>
  </outline>
</glyph>
<glyph name="braceleft" format="2">
  <advance width="600"/>
  <unicode hex="007B"/>
  <outline>
    <contour>
      <point x="430" y="-111" type="curve" smooth="yes"/>
      <point x="515" y="-111" type="line"/>
      <point x="515" y="29" type="line"/>
      <point x="460" y="29" type="line" smooth="yes"/>
      <point x="420" y="29"/>
      <point x="396" y="53"/>
      <point x="400" y="89" type="curve" smooth="yes"/>
      <point x="415" y="239" type="line" smooth="yes"/>
      <point x="422" y="313"/>
      <point x="359" y="364"/>
      <point x="260" y="364" type="curve"/>
      <point x="260" y="357" type="line"/>
      <point x="359" y="357"/>
      <point x="422" y="407"/>
      <point x="415" y="479" type="curve" smooth="yes"/>
      <point x="400" y="630" type="line" smooth="yes"/>
      <point x="397" y="666"/>
      <point x="421" y="690"/>
      <point x="460" y="690" type="curve" smooth="yes"/>
      <point x="515" y="690" type="line"/>
      <point x="515" y="830" type="line"/>
      <point x="430" y="830" type="line" smooth="yes"/>
      <point x="312" y="830"/>
      <point x="239" y="757"/>
      <point x="250" y="650" type="curve" smooth="yes"/>
      <point x="265" y="499" type="line" smooth="yes"/>
      <point x="269" y="457"/>
      <point x="245" y="429"/>
      <point x="205" y="429" type="curve" smooth="yes"/>
      <point x="65" y="429" type="line"/>
      <point x="65" y="289" type="line"/>
      <point x="205" y="289" type="line" smooth="yes"/>
      <point x="245" y="289"/>
      <point x="269" y="261"/>
      <point x="265" y="219" type="curve" smooth="yes"/>
      <point x="250" y="74" type="line" smooth="yes"/>
      <point x="238" y="-36"/>
      <point x="311" y="-111"/>
    </contour>
  </outline>
</glyph>
<glyph name="multiply" format="2">
  <advance width="600"/>
  <unicode hex="00D7"/>
  <outline>
    <contour>
      <point x="180" y="100" type="line"/>
      <point x="300" y="221" type="line"/>
      <point x="420" y="100" type="line"/>
      <point x="523" y="203" type="line"/>
      <point x="402" y="323" type="line"/>
      <point x="523" y="443" type="line"/>
      <point x="420" y="546" type="line"/>
      <point x="300" y="426" type="line"/>
      <point x="180" y="546" type="line"/>
      <point x="77" y="443" type="line"/>
      <point x="197" y="323" type="line"/>
      <point x="77" y="203" type="line"/>
    </contour>
  </outline>
</glyph>
<glyph name="Xi" format="2">
  <advance width="600"/>
  <unicode hex="039E"/>
  <outline>
    <contour>
      <point x="65" y="590" type="line"/>
      <point x="535" y="590" type="line"/>
      <point x="535" y="730" type="line"/>
      <point x="65" y="730" type="line"/>
    </contour>
    <contour>
      <point x="65" y="0" type="line"/>
      <point x="535" y="0" type="line"/>
      <point x="535" y="140" type="line"/>
      <point x="65" y="140" type="line"/>
    </contour>
    <contour>
      <point x="95" y="300" type="line"/>
      <point x="505" y="300" type="line"/>
      <point x="505" y="440" type="line"/>
      <point x="95" y="440" type="line"/>
    </contour>
  </outline>
</glyph>
<glyph name="epsilon" format="2">
  <advance width="600"/>
  <unicode hex="03B5"/>
  <outline>
    <contour>
      <point x="328" y="-7" type="line" smooth="yes"/>
      <point x="451" y="-7"/>
      <point x="538" y="57"/>
      <point x="555" y="160" type="curve"/>
      <point x="410" y="160" type="line"/>
      <point x="401" y="129"/>
      <point x="369" y="110"/>
      <point x="328" y="110" type="curve" smooth="yes"/>
      <point x="271" y="110" type="line" smooth="yes"/>
      <point x="227" y="110"/>
      <point x="200" y="132"/>
      <point x="200" y="168" type="curve" smooth="yes"/>
      <point x="200" y="203"/>
      <point x="227" y="224"/>
      <point x="271" y="224" type="curve" smooth="yes"/>
      <point x="400" y="224" type="line"/>
      <point x="400" y="338" type="line"/>
      <point x="277" y="338" type="line" smooth="yes"/>
      <point x="236" y="338"/>
      <point x="212" y="357"/>
      <point x="212" y="389" type="curve" smooth="yes"/>
      <point x="212" y="422"/>
      <point x="235" y="440"/>
      <point x="277" y="440" type="curve" smooth="yes"/>
      <point x="323" y="440" type="line" smooth="yes"/>
      <point x="364" y="440"/>
      <point x="394" y="421"/>
      <point x="403" y="390" type="curve"/>
      <point x="548" y="390" type="line"/>
      <point x="531" y="493"/>
      <point x="446" y="557"/>
      <point x="323" y="557" type="curve" smooth="yes"/>
      <point x="277" y="557" type="line" smooth="yes"/>
      <point x="146" y="557"/>
      <point x="63" y="499"/>
      <point x="63" y="407" type="curve" smooth="yes"/>
      <point x="63" y="333"/>
      <point x="123" y="284"/>
      <point x="214" y="284" type="curve"/>
      <point x="214" y="294" type="line"/>
      <point x="116" y="294"/>
      <point x="50" y="239"/>
      <point x="50" y="157" type="curve" smooth="yes"/>
      <point x="50" y="57"/>
      <point x="136" y="-7"/>
      <point x="271" y="-7" type="curve" smooth="yes"/>
    </contour>
  </outline>
</glyph>
<glyph name="tau" format="2">
  <advance width="600"/>
  <unicode hex="03C4"/>
  <outline>
    <contour>
      <point x="385" y="0" type="curve" smooth="yes"/>
      <point x="530" y="0" type="line"/>
      <point x="530" y="135" type="line"/>
      <point x="400" y="135" type="line" smooth="yes"/>
      <point x="371" y="135"/>
      <point x="355" y="151"/>
      <point x="355" y="180" type="curve" smooth="yes"/>
      <point x="355" y="415" type="line"/>
      <point x="540" y="415" type="line"/>
      <point x="540" y="550" type="line"/>
      <point x="40" y="550" type="line"/>
      <point x="40" y="415" type="line"/>
      <point x="205" y="415" type="line"/>
      <point x="205" y="180" type="line" smooth="yes"/>
      <point x="205" y="68"/>
      <point x="273" y="0"/>
    </contour>
  </outline>
</glyph>
<glyph name="tshe-cy" format="2">
  <advance width="600"/>
  <unicode hex="045B"/>
  <outline>
    <contour>
      <point x="0" y="555" type="line"/>
      <point x="66" y="555" type="line"/>
      <point x="66" y="0" type="line"/>
      <point x="216" y="0" type="line"/>
      <point x="216" y="280" type="line" smooth="yes"/>
      <point x="216" y="337"/>
      <point x="247" y="370"/>
      <point x="300" y="370" type="curve" smooth="yes"/>
      <point x="354" y="370"/>
      <point x="386" y="337"/>
      <point x="386" y="280" type="curve" smooth="yes"/>
      <point x="386" y="0" type="line"/>
      <point x="536" y="0" type="line"/>
      <point x="536" y="295" type="line" smooth="yes"/>
      <point x="536" y="419"/>
      <point x="466" y="500"/>
      <point x="359" y="500" type="curve" smooth="yes"/>
      <point x="280" y="500"/>
      <point x="227" y="457"/>
      <point x="214" y="385" type="curve"/>
      <point x="211" y="385" type="line"/>
      <point x="216" y="490" type="line"/>
      <point x="216" y="555" type="line"/>
      <point x="360" y="555" type="line"/>
      <point x="360" y="645" type="line"/>
      <point x="216" y="645" type="line"/>
      <point x="216" y="730" type="line"/>
      <point x="66" y="730" type="line"/>
      <point x="66" y="645" type="line"/>
      <point x="0" y="645" type="line"/>
    </contour>
  </outline>
</glyph>
<glyph name="Gheupturn-cy" format="2">
  <advance width="600"/>
  <unicode hex="0490"/>
  <outline>
    <contour>
      <point x="115" y="0" type="line"/>
      <point x="265" y="0" type="line"/>
      <point x="265" y="590" type="line"/>
      <point x="560" y="590" type="line"/>
      <point x="560" y="825" type="line"/>
      <point x="415" y="825" type="line"/>
      <point x="415" y="730" type="line"/>
      <point x="115" y="730" type="line"/>
    </contour>
  </outline>
</glyph>
<glyph name="complement" format="2">
  <advance width="600"/>
  <unicode hex="2201"/>
  <outline>
    <contour>
      <point x="305" y="-10" type="curve" smooth="yes"/>
      <point x="420" y="-10"/>
      <point x="495" y="65"/>
      <point x="495" y="180" type="curve" smooth="yes"/>
      <point x="495" y="230" type="line"/>
      <point x="345" y="230" type="line"/>
      <point x="345" y="160" type="line" smooth="yes"/>
      <point x="345" y="136"/>
      <point x="329" y="120"/>
      <point x="305" y="120" type="curve" smooth="yes"/>
      <point x="281" y="120"/>
      <point x="265" y="136"/>
      <point x="265" y="160" type="curve" smooth="yes"/>
      <point x="265" y="390" type="line" smooth="yes"/>
      <point x="265" y="414"/>
      <point x="281" y="430"/>
      <point x="305" y="430" type="curve" smooth="yes"/>
      <point x="329" y="430"/>
      <point x="345" y="414"/>
      <point x="345" y="390" type="curve" smooth="yes"/>
      <point x="345" y="350" type="line"/>
      <point x="495" y="350" type="line"/>
      <point x="495" y="370" type="line" smooth="yes"/>
      <point x="495" y="485"/>
      <point x="420" y="560"/>
      <point x="305" y="560" type="curve" smooth="yes"/>
      <point x="190" y="560"/>
      <point x="115" y="485"/>
      <point x="115" y="370" type="curve" smooth="yes"/>
      <point x="115" y="180" type="line" smooth="yes"/>
      <point x="115" y="65"/>
      <point x="190" y="-10"/>
    </contour>
  </outline>
</glyph>
<glyph name="ringequalto" format="2">
  <advance width="600"/>
  <unicode hex="2257"/>
  <outline>
    <contour>
      <point x="80" y="250" type="line"/>
      <point x="520" y="250" type="line"/>
      <point x="520" y="390" type="line"/>
      <point x="80" y="390" type="line"/>
    </contour>
    <contour>
      <point x="80" y="0" type="line"/>
      <point x="520" y="0" type="line"/>
      <point x="520" y="140" type="line"/>
      <point x="80" y="140" type="line"/>
    </contour>
    <component base="ringcomb" xOffset="600" yOffset="-115"/>
  </outline>
</glyph>
<glyph name="questionedequalto" format="2">
  <advance width="600"/>
  <unicode hex="225F"/>
  <outline>
    <contour>
      <point x="246" y="545" type="line"/>
      <point x="316" y="545" type="line"/>
      <point x="316" y="580" type="line"/>
      <point x="329" y="580" type="line" smooth="yes"/>
      <point x="405" y="580"/>
      <point x="454" y="623"/>
      <point x="454" y="695" type="curve" smooth="yes"/>
      <point x="454" y="766"/>
      <point x="405" y="815"/>
      <point x="329" y="815" type="curve" smooth="yes"/>
      <point x="184" y="815" type="line"/>
      <point x="184" y="735" type="line"/>
      <point x="320" y="735" type="line" smooth="yes"/>
      <point x="347" y="735"/>
      <point x="364" y="717"/>
      <point x="364" y="690" type="curve" smooth="yes"/>
      <point x="364" y="663"/>
      <point x="347" y="645"/>
      <point x="320" y="645" type="curve" smooth="yes"/>
      <point x="246" y="645" type="line"/>
    </contour>
    <contour>
      <point x="80" y="0" type="line"/>
      <point x="520" y="0" type="line"/>
      <point x="520" y="140" type="line"/>
      <point x="80" y="140" type="line"/>
    </contour>
    <contour>
      <point x="80" y="250" type="line"/>
      <point x="520" y="250" type="line"/>
      <point x="520" y="390" type="line"/>
      <point x="80" y="390" type="line"/>
    </contour>
    <contour>
      <point x="282" y="433" type="curve" smooth="yes"/>
      <point x="311" y="433"/>
      <point x="330" y="449"/>
      <point x="330" y="475" type="curve" smooth="yes"/>
      <point x="330" y="499"/>
      <point x="311" y="515"/>
      <point x="282" y="515" type="curve" smooth="yes"/>
      <point x="252" y="515"/>
      <point x="232" y="499"/>
      <point x="232" y="475" type="curve" smooth="yes"/>
      <point x="232" y="449"/>
      <point x="252" y="433"/>
    </contour>
  </outline>
</glyph>
<glyph name="sharp-musical" format="2">
  <advance width="600"/>
  <unicode hex="266F"/>
  <outline>
    <contour>
      <point x="65" y="303" type="line"/>
      <point x="535" y="551" type="line"/>
      <point x="535" y="686" type="line"/>
      <point x="65" y="438" type="line"/>
    </contour>
    <contour>
      <point x="183" y="0" type="line"/>
      <point x="226" y="0" type="line"/>
      <point x="226" y="640" type="line"/>
      <point x="183" y="640" type="line"/>
    </contour>
    <contour>
      <point x="65" y="57" type="line"/>
      <point x="535" y="304" type="line"/>
      <point x="535" y="439" type="line"/>
      <point x="65" y="192" type="line"/>
    </contour>
    <contour>
      <point x="381" y="90" type="line"/>
      <point x="424" y="90" type="line"/>
      <point x="424" y="730" type="line"/>
      <point x="381" y="730" type="line"/>
    </contour>
  </outline>
</glyph>
<glyph name="M.half" format="2">
  <advance width="400"/>
  <outline>
    <contour>
      <point x="20" y="0" type="line"/>
      <point x="100" y="0" type="line"/>
      <point x="100" y="95" type="line" smooth="yes"/>
      <point x="100" y="198"/>
      <point x="100" y="235"/>
      <point x="90" y="286" type="curve"/>
      <point x="158" y="96" type="line"/>
      <point x="244" y="96" type="line"/>
      <point x="309" y="289" type="line"/>
      <point x="300" y="238"/>
      <point x="300" y="185"/>
      <point x="300" y="95" type="curve" smooth="yes"/>
      <point x="300" y="0" type="line"/>
      <point x="380" y="0" type="line"/>
      <point x="380" y="335" type="line"/>
      <point x="257" y="335" type="line"/>
      <point x="216" y="213" type="line" smooth="yes"/>
      <point x="205" y="180"/>
      <point x="204" y="169"/>
      <point x="202" y="153" type="curve"/>
      <point x="200" y="169"/>
      <point x="198" y="180"/>
      <point x="187" y="212" type="curve" smooth="yes"/>
      <point x="144" y="335" type="line"/>
      <point x="20" y="335" type="line"/>
    </contour>
  </outline>
</glyph>
<glyph name="U.half" format="2">
  <advance width="400"/>
  <outline>
    <contour>
      <point x="200" y="-10" type="curve" smooth="yes"/>
      <point x="298" y="-10"/>
      <point x="365" y="53"/>
      <point x="365" y="144" type="curve" smooth="yes"/>
      <point x="365" y="335" type="line"/>
      <point x="279" y="335" type="line"/>
      <point x="279" y="144" type="line" smooth="yes"/>
      <point x="279" y="100"/>
      <point x="247" y="70"/>
      <point x="200" y="70" type="curve" smooth="yes"/>
      <point x="153" y="70"/>
      <point x="121" y="100"/>
      <point x="121" y="144" type="curve" smooth="yes"/>
      <point x="121" y="335" type="line"/>
      <point x="35" y="335" type="line"/>
      <point x="35" y="144" type="line" smooth="yes"/>
      <point x="35" y="53"/>
      <point x="102" y="-10"/>
    </contour>
  </outline>
</glyph>
<glyph name="asciitilde_greater.liga" format="2">
  <advance width="600"/>
  <outline>
    <contour>
      <point x="133" y="35" type="line"/>
      <point x="309" y="35" type="line"/>
      <point x="530" y="330" type="line"/>
      <point x="310" y="625" type="line"/>
      <point x="133" y="625" type="line"/>
      <point x="378" y="296" type="line"/>
      <point x="395" y="348" type="line"/>
      <point x="395" y="364" type="line"/>
      <point x="263" y="307"/>
      <point x="298" y="445"/>
      <point x="165" y="445" type="curve" smooth="yes"/>
      <point x="45" y="445"/>
      <point x="40" y="325"/>
      <point x="-10" y="325" type="curve" smooth="yes"/>
      <point x="-60" y="325"/>
      <point x="-65" y="445"/>
      <point x="-185" y="445" type="curve" smooth="yes"/>
      <point x="-305" y="445"/>
      <point x="-310" y="325"/>
      <point x="-365" y="325" type="curve" smooth="yes"/>
      <point x="-387" y="325"/>
      <point x="-400" y="339"/>
      <point x="-400" y="364" type="curve" smooth="yes"/>
      <point x="-400" y="400" type="line"/>
      <point x="-520" y="400" type="line"/>
      <point x="-520" y="350" type="line" smooth="yes"/>
      <point x="-520" y="268"/>
      <point x="-455" y="215"/>
      <point x="-370" y="215" type="curve" smooth="yes"/>
      <point x="-250" y="215"/>
      <point x="-235" y="335"/>
      <point x="-185" y="335" type="curve" smooth="yes"/>
      <point x="-135" y="335"/>
      <point x="-130" y="215"/>
      <point x="-10" y="215" type="curve" smooth="yes"/>
      <point x="110" y="215"/>
      <point x="115" y="335"/>
      <point x="165" y="335" type="curve" smooth="yes"/>
      <point x="208" y="335"/>
      <point x="210" y="266"/>
      <point x="290" y="246" type="curve"/>
    </contour>
  </outline>
</glyph>
<glyph name="brevecomb_gravecomb" format="2">
  <anchor x="-300" y="550" name="_top"/>
  <anchor x="-300" y="930" name="top"/>
  <outline>
    <contour>
      <point x="-300" y="640" type="curve" smooth="yes"/>
      <point x="-192" y="640"/>
      <point x="-115" y="696"/>
      <point x="-115" y="780" type="curve"/>
      <point x="-225" y="780" type="line"/>
      <point x="-225" y="748"/>
      <point x="-252" y="730"/>
      <point x="-301" y="730" type="curve" smooth="yes"/>
      <point x="-348" y="730"/>
      <point x="-375" y="748"/>
      <point x="-375" y="780" type="curve"/>
      <point x="-485" y="780" type="line"/>
      <point x="-485" y="696"/>
      <point x="-408" y="640"/>
    </contour>
    <contour>
      <point x="-355" y="790" type="line"/>
      <point x="-235" y="790" type="line"/>
      <point x="-350" y="930" type="line"/>
      <point x="-480" y="930" type="line"/>
    </contour>
  </outline>
</glyph>
<glyph name="brevecomb_tildecomb" format="2">
  <anchor x="-300" y="550" name="_top"/>
  <anchor x="-300" y="960" name="top"/>
  <outline>
    <contour>
      <point x="-300" y="640" type="curve" smooth="yes"/>
      <point x="-192" y="640"/>
      <point x="-115" y="696"/>
      <point x="-115" y="780" type="curve"/>
      <point x="-225" y="780" type="line"/>
      <point x="-225" y="748"/>
      <point x="-252" y="730"/>
      <point x="-301" y="730" type="curve" smooth="yes"/>
      <point x="-348" y="730"/>
      <point x="-375" y="748"/>
      <point x="-375" y="780" type="curve"/>
      <point x="-485" y="780" type="line"/>
      <point x="-485" y="696"/>
      <point x="-408" y="640"/>
    </contour>
    <contour>
      <point x="-230" y="805" type="curve" smooth="yes"/>
      <point x="-164" y="805"/>
      <point x="-120" y="851"/>
      <point x="-120" y="920" type="curve" smooth="yes"/>
      <point x="-120" y="955" type="line"/>
      <point x="-205" y="955" type="line"/>
      <point x="-205" y="918" type="line" smooth="yes"/>
      <point x="-205" y="901"/>
      <point x="-217" y="890"/>
      <point x="-235" y="890" type="curve" smooth="yes"/>
      <point x="-275" y="890"/>
      <point x="-285" y="960"/>
      <point x="-370" y="960" type="curve" smooth="yes"/>
      <point x="-436" y="960"/>
      <point x="-480" y="914"/>
      <point x="-480" y="845" type="curve" smooth="yes"/>
      <point x="-480" y="810" type="line"/>
      <point x="-395" y="810" type="line"/>
      <point x="-395" y="842" type="line" smooth="yes"/>
      <point x="-395" y="862"/>
      <point x="-383" y="875"/>
      <point x="-365" y="875" type="curve" smooth="yes"/>
      <point x="-325" y="875"/>
      <point x="-315" y="805"/>
    </contour>
  </outline>
</glyph>
<glyph name="caroncomb.alt" format="2">
  <anchor x="-350" y="730" name="_top"/>
  <anchor x="-195" y="550" name="_topright"/>
  <outline>
    <contour>
      <point x="-175" y="550" type="line"/>
      <point x="-45" y="550" type="line"/>
      <point x="-25" y="730" type="line"/>
      <point x="-165" y="730" type="line"/>
    </contour>
  </outline>
</glyph>
<glyph name="numbersign_underscore.liga" format="2">
  <advance width="600"/>
  <outline>
    <contour>
      <point x="-327" y="-165" type="line"/>
      <point x="550" y="-165" type="line"/>
      <point x="550" y="-25" type="line"/>
      <point x="-203" y="-25" type="line"/>
      <point x="-168" y="175" type="line"/>
      <point x="-71" y="175" type="line"/>
      <point x="-71" y="275" type="line"/>
      <point x="-151" y="275" type="line"/>
      <point x="-122" y="455" type="line"/>
      <point x="-36" y="455" type="line"/>
      <point x="-36" y="555" type="line"/>
      <point x="-105" y="555" type="line"/>
      <point x="-74" y="730" type="line"/>
      <point x="-174" y="730" type="line"/>
      <point x="-205" y="555" type="line"/>
      <point x="-335" y="555" type="line"/>
      <point x="-304" y="730" type="line"/>
      <point x="-404" y="730" type="line"/>
      <point x="-435" y="555" type="line"/>
      <point x="-531" y="555" type="line"/>
      <point x="-531" y="455" type="line"/>
      <point x="-452" y="455" type="line"/>
      <point x="-481" y="275" type="line"/>
      <point x="-566" y="275" type="line"/>
      <point x="-566" y="175" type="line"/>
      <point x="-498" y="175" type="line"/>
      <point x="-528" y="0" type="line"/>
      <point x="-428" y="0" type="line"/>
      <point x="-398" y="175" type="line"/>
      <point x="-268" y="175" type="line"/>
    </contour>
    <contour>
      <point x="-381" y="275" type="line"/>
      <point x="-352" y="455" type="line"/>
      <point x="-222" y="455" type="line"/>
      <point x="-251" y="275" type="line"/>
    </contour>
  </outline>
</glyph>
